<?xml version="1.0" encoding="utf-8"?>
<!-- Generator: Adobe Illustrator 16.0.0, SVG Export Plug-In . SVG Version: 6.00 Build 0)  -->
<!DOCTYPE svg PUBLIC "-//W3C//DTD SVG 1.1//EN" "http://www.w3.org/Graphics/SVG/1.1/DTD/svg11.dtd">
<svg version="1.1" id="Layer_1" xmlns="http://www.w3.org/2000/svg" xmlns:xlink="http://www.w3.org/1999/xlink" x="0px" y="0px"
	 width="552.607px" height="48.671px" viewBox="0 0 552.607 48.671" enable-background="new 0 0 552.607 48.671"
	 xml:space="preserve">
<path fill="#3462A4" d="M126.448,23.58c-2.029,0-3.49,0.664-4.973,1.339v15.31c1.422,0.14,2.232,0.14,3.582,0.14
	c4.869,0,5.535-2.229,5.535-5.336v-7.314C130.593,25.423,129.831,23.58,126.448,23.58 M94.12,22.744
	c-3.378,0-4.147,1.852-4.147,4.145v1.286h8.292v-1.286C98.265,24.596,97.494,22.744,94.12,22.744 M31.494,38.682
	c0,1.812,0.856,2.754,2.748,2.754c2.03,0,3.23-0.66,4.712-1.34v-3.63h-4.438C32.416,36.466,31.494,36.855,31.494,38.682
	 M157.897,23.58c-3.383,0-4.555,1.843-4.555,4.136v8.38c0,2.301,1.172,4.147,4.555,4.147c3.373,0,4.555-1.848,4.555-4.147v-8.38
	C162.452,25.423,161.271,23.58,157.897,23.58 M14.914,48.072H4.971V24.035H0V15.75h4.971v-4.973C4.971,4.02,7.776,0,15.746,0h6.637
	v8.285h-4.146c-3.104,0-3.31,1.158-3.31,3.318l-0.013,4.146h7.517l-0.88,8.285h-6.637V48.072z M48.902,48.134h-8.288l-0.357-2.094
	c-3.786,2.094-7.164,2.435-9.391,2.435c-6.08,0-9.315-4.056-9.315-9.664c0-6.615,3.775-8.978,10.529-8.978h6.874v-1.43
	c0-3.379-0.388-4.369-5.588-4.369h-8.504l0.832-8.285h9.294c11.412,0,13.914,3.602,13.914,12.721V48.134z M77.087,24.643
	c-5.158-0.883-6.639-1.078-9.12-1.078c-4.458,0-5.805,0.984-5.805,4.763v7.151c0,3.78,1.347,4.767,5.805,4.767
	c2.481,0,3.962-0.195,9.12-1.082v8.078c-4.519,1.014-7.461,1.278-9.948,1.278c-10.678,0-14.92-5.606-14.92-13.709v-5.804
	c0-8.106,4.242-13.724,14.92-13.724c2.487,0,5.43,0.269,9.948,1.282V24.643z M108.208,34.811H89.973v0.668
	c0,3.78,1.348,4.767,5.804,4.767c4.008,0,6.452-0.195,11.6-1.082v8.078c-4.964,1.014-7.55,1.278-12.424,1.278
	c-10.678,0-14.924-5.606-14.924-13.709v-6.636c0-7.085,3.152-12.892,14.092-12.892c10.942,0,14.088,5.738,14.088,12.892
	L108.208,34.811L108.208,34.811z M140.536,34.962c0,7.83-2.24,13.541-15.814,13.541c-4.898,0-7.777-0.432-13.188-1.264V2.487
	l9.941-1.655v15.653c2.148-0.798,4.93-1.202,7.461-1.202c9.945,0,11.6,4.453,11.6,11.605V34.962L140.536,34.962z M172.405,35.134
	c0,6.755-2.793,13.306-14.475,13.306c-11.689,0-14.533-6.551-14.533-13.306v-6.52c0-6.757,2.844-13.309,14.533-13.309
	c11.682,0,14.475,6.552,14.475,13.309V35.134z M204.25,35.134c0,6.755-2.795,13.306-14.473,13.306
	c-11.69,0-14.536-6.551-14.536-13.306v-6.52c0-6.757,2.846-13.309,14.536-13.309c11.678,0,14.473,6.552,14.473,13.309V35.134z
	 M236.936,48.072h-10.779l-9.113-15.191v15.191H207.1V2.487l9.943-1.655v29.345l9.113-14.427h10.779l-9.951,15.744L236.936,48.072z
	 M189.742,23.58c-3.377,0-4.549,1.843-4.549,4.136v8.38c0,2.301,1.172,4.147,4.549,4.147c3.373,0,4.566-1.848,4.566-4.147v-8.38
	C194.309,25.423,193.115,23.58,189.742,23.58"/>
<g>
	<path fill="#333333" d="M295.145,12.27c-1.424-0.906-3.14-1.651-5.146-2.233s-4.089-0.874-6.247-0.874
		c-2.2,0-4.262,0.4-6.182,1.201c-1.921,0.801-3.604,1.993-5.049,3.574c-1.446,1.581-2.579,3.53-3.398,5.846
		c-0.82,2.317-1.23,4.969-1.23,7.957c0,2.858,0.378,5.425,1.133,7.698s1.834,4.201,3.237,5.781c1.401,1.581,3.085,2.794,5.049,3.639
		c1.963,0.844,4.153,1.266,6.57,1.266c2.201,0,4.272-0.308,6.215-0.923c1.941-0.616,3.603-1.431,4.984-2.443l0.646,2.525
		c-1.381,0.906-3.097,1.673-5.146,2.298c-2.051,0.625-4.305,0.938-6.765,0.938c-2.892,0-5.492-0.485-7.801-1.457
		c-2.309-0.971-4.272-2.352-5.891-4.143c-1.618-1.79-2.859-3.97-3.722-6.538c-0.864-2.566-1.295-5.447-1.295-8.642
		c0-3.193,0.463-6.085,1.392-8.674c0.928-2.589,2.233-4.79,3.917-6.603c1.683-1.812,3.667-3.214,5.955-4.208
		c2.287-0.993,4.79-1.489,7.509-1.489c2.632,0,4.984,0.337,7.056,1.009c2.071,0.672,3.755,1.394,5.05,2.163L295.145,12.27z"/>
	<path fill="#333333" d="M328.048,32.919c0,2.33-0.378,4.456-1.133,6.376c-0.755,1.921-1.802,3.561-3.14,4.92
		s-2.88,2.417-4.628,3.172s-3.637,1.133-5.664,1.133c-1.985,0-3.852-0.356-5.6-1.068s-3.269-1.736-4.563-3.074
		s-2.31-2.956-3.043-4.855c-0.733-1.898-1.1-4.014-1.1-6.344s0.377-4.455,1.133-6.376c0.754-1.92,1.801-3.561,3.139-4.92
		s2.892-2.417,4.661-3.172c1.77-0.754,3.646-1.133,5.632-1.133c2.028,0,3.905,0.356,5.632,1.068
		c1.726,0.712,3.236,1.738,4.531,3.075c1.295,1.338,2.308,2.957,3.042,4.855C327.681,28.475,328.048,30.589,328.048,32.919z
		 M325.395,33.048c0-2.027-0.303-3.852-0.906-5.47c-0.605-1.618-1.425-2.988-2.46-4.11c-1.036-1.122-2.277-1.984-3.723-2.589
		c-1.446-0.604-3.01-0.906-4.693-0.906c-1.683,0-3.247,0.324-4.692,0.971c-1.446,0.647-2.687,1.554-3.723,2.719
		c-1.035,1.165-1.855,2.547-2.46,4.143c-0.604,1.598-0.906,3.345-0.906,5.243c0,2.029,0.292,3.852,0.874,5.471
		c0.583,1.618,1.402,2.988,2.46,4.11c1.057,1.122,2.309,1.985,3.755,2.589c1.445,0.605,3.01,0.906,4.692,0.906
		c1.684,0,3.247-0.323,4.693-0.971c1.445-0.647,2.687-1.554,3.723-2.719c1.035-1.165,1.854-2.546,2.46-4.143
		C325.092,36.696,325.395,34.949,325.395,33.048z"/>
	<path fill="#333333" d="M354.4,47.873V28.148c0-2.638-0.562-4.661-1.683-6.066c-1.123-1.406-2.892-2.109-5.309-2.109
		c-1.683,0-3.398,0.444-5.146,1.33c-1.747,0.887-3.441,2.152-5.081,3.795v22.774h-2.654V18.419l2.654-0.841v5.179
		c1.726-1.769,3.561-3.075,5.502-3.917c1.942-0.841,3.625-1.262,5.05-1.262c2.934,0,5.221,0.853,6.861,2.557
		c1.64,1.705,2.46,4.197,2.46,7.476v20.262H354.4z"/>
	<path fill="#333333" d="M374.24,47.937h-2.266l-11.717-29.712h2.849l10.099,25.893l9.903-25.893h2.784L374.24,47.937z"/>
	<path fill="#333333" d="M390.002,33.052c0,1.864,0.249,3.599,0.749,5.202c0.498,1.604,1.225,2.992,2.18,4.163
		c0.954,1.172,2.114,2.082,3.482,2.732c1.366,0.65,2.896,0.975,4.588,0.975c1.691,0,3.231-0.242,4.62-0.73
		c1.388-0.487,2.625-1.085,3.71-1.794l0.583,2.396c-1.168,0.734-2.518,1.338-4.053,1.812c-1.535,0.474-3.21,0.712-5.025,0.712
		c-2.032,0-3.88-0.378-5.545-1.133s-3.08-1.812-4.247-3.172s-2.075-2.978-2.724-4.855c-0.648-1.877-0.972-3.938-0.972-6.182
		c0-2.243,0.323-4.314,0.971-6.214s1.563-3.55,2.751-4.953c1.187-1.402,2.59-2.492,4.208-3.269s3.398-1.165,5.34-1.165
		c1.467,0,2.826,0.238,4.078,0.712c1.252,0.476,2.341,1.155,3.27,2.039c0.928,0.885,1.65,1.953,2.168,3.205
		c0.519,1.252,0.777,2.676,0.777,4.272c0,0.734-0.066,1.532-0.195,2.396c-0.13,0.863-0.281,1.618-0.454,2.266l-20.26,0.13V33.052z
		 M408.062,30.201c0.13-0.738,0.194-1.477,0.194-2.215c0-2.345-0.685-4.267-2.054-5.766c-1.37-1.498-3.249-2.248-5.641-2.248
		c-2.781,0-5.085,0.945-6.911,2.834c-1.825,1.89-2.978,4.353-3.455,7.394H408.062z"/>
	<path fill="#333333" d="M420.206,47.873h-2.654V18.419l2.654-0.841v7.38c0.862-2.201,2.093-3.981,3.689-5.341
		s3.409-2.039,5.438-2.039c0.949,0,1.845,0.119,2.687,0.356c0.842,0.238,1.563,0.529,2.169,0.874l-0.777,2.395
		c-0.475-0.318-1.079-0.603-1.812-0.854c-0.734-0.251-1.575-0.376-2.524-0.376c-1.683,0-3.269,0.693-4.758,2.077
		c-1.488,1.385-2.859,3.764-4.11,7.137V47.873z"/>
	<path fill="#333333" d="M455.354,40.169c0,1.295-0.27,2.46-0.809,3.495c-0.54,1.036-1.263,1.91-2.169,2.622
		s-1.964,1.263-3.172,1.65c-1.209,0.389-2.503,0.583-3.884,0.583c-1.684,0-3.312-0.245-4.888-0.731
		c-1.575-0.487-2.945-1.107-4.11-1.858l0.842-2.459c1.251,0.82,2.566,1.467,3.948,1.941c1.381,0.476,2.826,0.712,4.337,0.712
		c0.949,0,1.866-0.128,2.752-0.387c0.884-0.259,1.683-0.624,2.395-1.098s1.283-1.066,1.716-1.776
		c0.431-0.71,0.647-1.539,0.647-2.487c0-1.076-0.227-1.958-0.68-2.647s-1.047-1.28-1.78-1.776c-0.734-0.496-1.576-0.904-2.524-1.227
		c-0.95-0.323-1.921-0.657-2.913-1.002c-0.993-0.344-1.985-0.731-2.978-1.162c-0.994-0.431-1.889-0.958-2.687-1.583
		c-0.8-0.624-1.446-1.377-1.942-2.26c-0.497-0.883-0.744-1.928-0.744-3.133c0-1.334,0.247-2.497,0.744-3.488
		c0.496-0.99,1.165-1.818,2.007-2.486s1.822-1.173,2.945-1.518c1.122-0.344,2.33-0.517,3.625-0.517c1.554,0,3.053,0.206,4.499,0.615
		c1.445,0.411,2.751,0.917,3.916,1.521l-0.906,2.395c-1.252-0.69-2.515-1.24-3.787-1.651c-1.273-0.409-2.6-0.615-3.98-0.615
		c-2.029,0-3.647,0.497-4.855,1.489c-1.208,0.993-1.812,2.309-1.812,3.949c0,0.95,0.227,1.759,0.68,2.428s1.036,1.241,1.748,1.715
		c0.712,0.476,1.543,0.874,2.492,1.198c0.949,0.323,1.898,0.658,2.849,1.003c1.035,0.346,2.049,0.724,3.042,1.133
		c0.992,0.411,1.898,0.938,2.719,1.586c0.819,0.647,1.478,1.436,1.975,2.363C455.105,37.634,455.354,38.789,455.354,40.169z"/>
	<path fill="#333333" d="M464.54,9.098c0,0.518-0.173,0.993-0.518,1.424c-0.346,0.432-0.82,0.647-1.425,0.647
		s-1.067-0.215-1.392-0.647c-0.323-0.431-0.485-0.906-0.485-1.424c0-0.475,0.162-0.917,0.485-1.327
		c0.324-0.41,0.787-0.615,1.392-0.615s1.079,0.205,1.425,0.615C464.367,8.181,464.54,8.623,464.54,9.098z M461.304,47.873V18.419
		l2.653-0.841v30.295H461.304z"/>
	<path fill="#333333" d="M499.204,32.919c0,2.33-0.378,4.456-1.133,6.376c-0.755,1.921-1.802,3.561-3.14,4.92
		s-2.88,2.417-4.628,3.172s-3.637,1.133-5.664,1.133c-1.985,0-3.852-0.356-5.6-1.068s-3.269-1.736-4.563-3.074
		s-2.31-2.956-3.043-4.855c-0.733-1.898-1.1-4.014-1.1-6.344s0.377-4.455,1.133-6.376c0.754-1.92,1.801-3.561,3.139-4.92
		s2.892-2.417,4.661-3.172c1.77-0.754,3.646-1.133,5.632-1.133c2.028,0,3.905,0.356,5.632,1.068
		c1.726,0.712,3.236,1.738,4.531,3.075c1.295,1.338,2.308,2.957,3.042,4.855C498.837,28.475,499.204,30.589,499.204,32.919z
		 M496.551,33.048c0-2.027-0.303-3.852-0.906-5.47c-0.605-1.618-1.425-2.988-2.46-4.11c-1.036-1.122-2.277-1.984-3.723-2.589
		c-1.446-0.604-3.01-0.906-4.693-0.906c-1.683,0-3.247,0.324-4.692,0.971c-1.446,0.647-2.687,1.554-3.723,2.719
		c-1.035,1.165-1.855,2.547-2.46,4.143c-0.604,1.598-0.906,3.345-0.906,5.243c0,2.029,0.292,3.852,0.874,5.471
		c0.583,1.618,1.402,2.988,2.46,4.11c1.057,1.122,2.309,1.985,3.755,2.589c1.445,0.605,3.01,0.906,4.692,0.906
		c1.684,0,3.247-0.323,4.693-0.971c1.445-0.647,2.687-1.554,3.723-2.719c1.035-1.165,1.854-2.546,2.46-4.143
		C496.248,36.696,496.551,34.949,496.551,33.048z"/>
	<path fill="#333333" d="M525.557,47.873V28.148c0-2.638-0.562-4.661-1.683-6.066c-1.123-1.406-2.892-2.109-5.309-2.109
		c-1.683,0-3.398,0.444-5.146,1.33c-1.747,0.887-3.441,2.152-5.081,3.795v22.774h-2.654V18.419l2.654-0.841v5.179
		c1.726-1.769,3.561-3.075,5.502-3.917c1.942-0.841,3.625-1.262,5.05-1.262c2.934,0,5.221,0.853,6.861,2.557
		c1.64,1.705,2.46,4.197,2.46,7.476v20.262H525.557z"/>
	<path fill="#333333" d="M552.607,40.169c0,1.295-0.27,2.46-0.809,3.495c-0.54,1.036-1.263,1.91-2.169,2.622
		s-1.964,1.263-3.172,1.65c-1.209,0.389-2.503,0.583-3.884,0.583c-1.684,0-3.312-0.245-4.888-0.731
		c-1.575-0.487-2.945-1.107-4.11-1.858l0.842-2.459c1.251,0.82,2.566,1.467,3.948,1.941c1.381,0.476,2.826,0.712,4.337,0.712
		c0.949,0,1.866-0.128,2.752-0.387c0.884-0.259,1.683-0.624,2.395-1.098s1.283-1.066,1.716-1.776
		c0.431-0.71,0.647-1.539,0.647-2.487c0-1.076-0.227-1.958-0.68-2.647s-1.047-1.28-1.78-1.776c-0.734-0.496-1.576-0.904-2.524-1.227
		c-0.95-0.323-1.921-0.657-2.913-1.002c-0.993-0.344-1.985-0.731-2.978-1.162c-0.994-0.431-1.889-0.958-2.687-1.583
		c-0.8-0.624-1.446-1.377-1.942-2.26c-0.497-0.883-0.744-1.928-0.744-3.133c0-1.334,0.247-2.497,0.744-3.488
		c0.496-0.99,1.165-1.818,2.007-2.486s1.822-1.173,2.945-1.518c1.122-0.344,2.33-0.517,3.625-0.517c1.554,0,3.053,0.206,4.499,0.615
		c1.445,0.411,2.751,0.917,3.916,1.521l-0.906,2.395c-1.252-0.69-2.515-1.24-3.787-1.651c-1.273-0.409-2.6-0.615-3.98-0.615
		c-2.029,0-3.647,0.497-4.855,1.489c-1.208,0.993-1.812,2.309-1.812,3.949c0,0.95,0.227,1.759,0.68,2.428s1.036,1.241,1.748,1.715
		c0.712,0.476,1.543,0.874,2.492,1.198c0.949,0.323,1.898,0.658,2.849,1.003c1.035,0.346,2.049,0.724,3.042,1.133
		c0.992,0.411,1.898,0.938,2.719,1.586c0.819,0.647,1.478,1.436,1.975,2.363C552.358,37.634,552.607,38.789,552.607,40.169z"/>
</g>
</svg>
